<svg width="183" height="29" viewBox="0 0 183 29" fill="none" xmlns="http://www.w3.org/2000/svg">
<g clip-path="url(#clip0_1_2)">
<path d="M1.72159 3.54545H5.59091L10.7727 16.1932H10.9773L16.1591 3.54545H20.0284V21H16.9943V9.00852H16.8324L12.0085 20.9489H9.74148L4.91761 8.98295H4.75568V21H1.72159V3.54545ZM27.1023 21.2642C26.2727 21.2642 25.5256 21.1165 24.8608 20.821C24.2017 20.5199 23.679 20.0767 23.2926 19.4915C22.9119 18.9062 22.7216 18.1847 22.7216 17.3267C22.7216 16.5881 22.858 15.9773 23.1307 15.4943C23.4034 15.0114 23.7756 14.625 24.2472 14.3352C24.7188 14.0455 25.25 13.8267 25.8409 13.679C26.4375 13.5256 27.054 13.4148 27.6903 13.3466C28.4574 13.267 29.0795 13.196 29.5568 13.1335C30.0341 13.0653 30.3807 12.9631 30.5966 12.8267C30.8182 12.6847 30.929 12.4659 30.929 12.1705V12.1193C30.929 11.4773 30.7386 10.9801 30.358 10.6278C29.9773 10.2756 29.429 10.0994 28.7131 10.0994C27.9574 10.0994 27.358 10.2642 26.9148 10.5938C26.4773 10.9233 26.1818 11.3125 26.0284 11.7614L23.1477 11.3523C23.375 10.5568 23.75 9.89205 24.2727 9.35795C24.7955 8.81818 25.4347 8.41477 26.1903 8.14773C26.946 7.875 27.7813 7.73864 28.696 7.73864C29.3267 7.73864 29.9545 7.8125 30.5795 7.96023C31.2045 8.10795 31.7756 8.35227 32.2926 8.69318C32.8097 9.02841 33.2244 9.4858 33.5369 10.0653C33.8551 10.6449 34.0142 11.3693 34.0142 12.2386V21H31.0483V19.2017H30.946C30.7585 19.5653 30.4943 19.9062 30.1534 20.2244C29.8182 20.5369 29.3949 20.7898 28.8835 20.983C28.3778 21.1705 27.7841 21.2642 27.1023 21.2642ZM27.9034 18.9972C28.5227 18.9972 29.0597 18.875 29.5142 18.6307C29.9688 18.3807 30.3182 18.0511 30.5625 17.642C30.8125 17.233 30.9375 16.7869 30.9375 16.304V14.7614C30.8409 14.8409 30.6761 14.9148 30.4432 14.983C30.2159 15.0511 29.9602 15.1108 29.6761 15.1619C29.392 15.2131 29.1108 15.2585 28.8324 15.2983C28.554 15.3381 28.3125 15.3722 28.108 15.4006C27.6477 15.4631 27.2358 15.5653 26.8722 15.7074C26.5085 15.8494 26.2216 16.0483 26.0114 16.304C25.8011 16.554 25.696 16.8778 25.696 17.2756C25.696 17.8438 25.9034 18.2727 26.3182 18.5625C26.733 18.8523 27.2614 18.9972 27.9034 18.9972ZM42.8267 21.2557C41.5199 21.2557 40.3977 20.9688 39.4602 20.3949C38.5284 19.821 37.8097 19.0284 37.304 18.017C36.804 17 36.554 15.8295 36.554 14.5057C36.554 13.1761 36.8097 12.0028 37.321 10.9858C37.8324 9.96307 38.554 9.16761 39.4858 8.59943C40.4233 8.02557 41.5313 7.73864 42.8097 7.73864C43.8722 7.73864 44.8125 7.93466 45.6307 8.3267C46.4545 8.71307 47.1108 9.26136 47.5994 9.97159C48.0881 10.6761 48.3665 11.5 48.4347 12.4432H45.4858C45.3665 11.8125 45.0824 11.2869 44.6335 10.8665C44.1903 10.4403 43.5966 10.2273 42.8523 10.2273C42.2216 10.2273 41.6676 10.3977 41.1903 10.7386C40.7131 11.0739 40.3409 11.5568 40.0739 12.1875C39.8125 12.8182 39.6818 13.5739 39.6818 14.4545C39.6818 15.3466 39.8125 16.1136 40.0739 16.7557C40.3352 17.392 40.7017 17.8835 41.1733 18.2301C41.6506 18.571 42.2102 18.7415 42.8523 18.7415C43.3068 18.7415 43.7131 18.6562 44.071 18.4858C44.4347 18.3097 44.7386 18.0568 44.983 17.7273C45.2273 17.3977 45.3949 16.9972 45.4858 16.5256H48.4347C48.3608 17.4517 48.0881 18.2727 47.6165 18.9886C47.1449 19.6989 46.5028 20.2557 45.6903 20.6591C44.8778 21.0568 43.9233 21.2557 42.8267 21.2557ZM50.0178 10.4403V7.90909H61.4723V10.4403H57.2365V21H54.2536V10.4403H50.0178ZM69.1854 21.2557C67.8729 21.2557 66.7393 20.983 65.7848 20.4375C64.8359 19.8864 64.1058 19.108 63.5945 18.1023C63.0831 17.0909 62.8274 15.9006 62.8274 14.5312C62.8274 13.1847 63.0831 12.0028 63.5945 10.9858C64.1115 9.96307 64.8331 9.16761 65.7592 8.59943C66.6854 8.02557 67.7734 7.73864 69.0234 7.73864C69.8303 7.73864 70.5916 7.86932 71.3075 8.13068C72.0291 8.38636 72.6655 8.78409 73.2166 9.32386C73.7734 9.86364 74.2109 10.5511 74.5291 11.3864C74.8473 12.2159 75.0064 13.2045 75.0064 14.3523V15.2983H64.2763V13.2188H72.049C72.0433 12.6278 71.9155 12.1023 71.6655 11.642C71.4155 11.1761 71.0661 10.8097 70.6172 10.5426C70.174 10.2756 69.657 10.142 69.0661 10.142C68.4354 10.142 67.8814 10.2955 67.4041 10.6023C66.9268 10.9034 66.5547 11.3011 66.2876 11.7955C66.0263 12.2841 65.8928 12.821 65.8871 13.4062V15.2216C65.8871 15.983 66.0263 16.6364 66.3047 17.1818C66.5831 17.7216 66.9723 18.1364 67.4723 18.4261C67.9723 18.7102 68.5575 18.8523 69.228 18.8523C69.6768 18.8523 70.0831 18.7898 70.4467 18.6648C70.8104 18.5341 71.1257 18.3438 71.3928 18.0938C71.6598 17.8438 71.8615 17.5341 71.9979 17.1648L74.8786 17.4886C74.6967 18.25 74.3501 18.9148 73.8388 19.483C73.3331 20.0455 72.6854 20.483 71.8956 20.7955C71.1058 21.1023 70.2024 21.2557 69.1854 21.2557ZM77.6165 25.9091V7.90909H80.6506V10.0739H80.8295C80.9886 9.75568 81.2131 9.41761 81.5028 9.05966C81.7926 8.69602 82.1847 8.38636 82.679 8.13068C83.1733 7.86932 83.804 7.73864 84.571 7.73864C85.5824 7.73864 86.4943 7.99716 87.3068 8.5142C88.125 9.02557 88.7727 9.78409 89.25 10.7898C89.733 11.7898 89.9744 13.017 89.9744 14.4716C89.9744 15.9091 89.7386 17.1307 89.267 18.1364C88.7955 19.142 88.1534 19.9091 87.3409 20.4375C86.5284 20.9659 85.608 21.2301 84.5795 21.2301C83.8295 21.2301 83.2074 21.1051 82.7131 20.8551C82.2188 20.6051 81.821 20.304 81.5199 19.9517C81.2244 19.5937 80.9943 19.2557 80.8295 18.9375H80.7017V25.9091H77.6165ZM80.642 14.4545C80.642 15.3011 80.7614 16.0426 81 16.679C81.2443 17.3153 81.5938 17.8125 82.0483 18.1705C82.5085 18.5227 83.0653 18.6989 83.7188 18.6989C84.4006 18.6989 84.9716 18.517 85.4318 18.1534C85.892 17.7841 86.2386 17.2812 86.4716 16.6449C86.7102 16.0028 86.8295 15.2727 86.8295 14.4545C86.8295 13.642 86.7131 12.9205 86.4801 12.2898C86.2472 11.6591 85.9006 11.1648 85.4403 10.8068C84.9801 10.4489 84.4062 10.2699 83.7188 10.2699C83.0597 10.2699 82.5 10.4432 82.0398 10.7898C81.5795 11.1364 81.2301 11.6222 80.9915 12.2472C80.7585 12.8722 80.642 13.608 80.642 14.4545Z" fill="black"/>
<path d="M146.651 5.54545V23H143.489V8.62216H143.386L139.304 11.2301V8.33239L143.642 5.54545H146.651ZM157.474 23.2386C156.639 23.233 155.824 23.0881 155.028 22.804C154.233 22.5142 153.517 22.0455 152.881 21.3977C152.244 20.7443 151.739 19.8778 151.364 18.7983C150.989 17.7131 150.804 16.3693 150.81 14.767C150.81 13.2727 150.969 11.9403 151.287 10.7699C151.605 9.59943 152.062 8.6108 152.659 7.80398C153.256 6.99148 153.974 6.37216 154.815 5.94602C155.662 5.51989 156.608 5.30682 157.653 5.30682C158.75 5.30682 159.722 5.52273 160.568 5.95454C161.42 6.38636 162.108 6.97727 162.631 7.72727C163.153 8.47159 163.477 9.3125 163.602 10.25H160.491C160.332 9.57955 160.006 9.04545 159.511 8.64773C159.023 8.24432 158.403 8.04261 157.653 8.04261C156.443 8.04261 155.511 8.56818 154.858 9.61932C154.21 10.6705 153.884 12.1136 153.878 13.9489H153.997C154.276 13.4489 154.636 13.0199 155.08 12.6619C155.523 12.304 156.023 12.0284 156.58 11.8352C157.142 11.6364 157.736 11.5369 158.361 11.5369C159.384 11.5369 160.301 11.7812 161.114 12.2699C161.932 12.7585 162.58 13.4318 163.057 14.2898C163.534 15.142 163.77 16.1193 163.764 17.2216C163.77 18.3693 163.509 19.4006 162.98 20.3153C162.452 21.2244 161.716 21.9403 160.773 22.4631C159.83 22.9858 158.73 23.2443 157.474 23.2386ZM157.457 20.6818C158.077 20.6818 158.631 20.5312 159.119 20.2301C159.608 19.929 159.994 19.5227 160.278 19.0114C160.563 18.5 160.702 17.9261 160.696 17.2898C160.702 16.6648 160.565 16.0994 160.287 15.5938C160.014 15.0881 159.636 14.6875 159.153 14.392C158.67 14.0966 158.119 13.9489 157.5 13.9489C157.04 13.9489 156.611 14.0369 156.213 14.2131C155.815 14.3892 155.469 14.6335 155.173 14.946C154.878 15.2528 154.645 15.6108 154.474 16.0199C154.31 16.4233 154.224 16.8551 154.219 17.3153C154.224 17.9233 154.366 18.483 154.645 18.9943C154.923 19.5057 155.307 19.9148 155.795 20.2216C156.284 20.5284 156.838 20.6818 157.457 20.6818ZM172.909 23.2386C171.682 23.2386 170.591 23.0284 169.636 22.608C168.688 22.1875 167.938 21.6023 167.386 20.8523C166.835 20.1023 166.543 19.2358 166.509 18.2528H169.713C169.741 18.7244 169.898 19.1364 170.182 19.4886C170.466 19.8352 170.844 20.1051 171.315 20.2983C171.787 20.4915 172.315 20.5881 172.901 20.5881C173.526 20.5881 174.08 20.4801 174.562 20.2642C175.045 20.0426 175.423 19.7358 175.696 19.3438C175.969 18.9517 176.102 18.5 176.097 17.9886C176.102 17.4602 175.966 16.9943 175.688 16.5909C175.409 16.1875 175.006 15.8722 174.477 15.6449C173.955 15.4176 173.324 15.304 172.585 15.304H171.043V12.8665H172.585C173.193 12.8665 173.724 12.7614 174.179 12.5511C174.639 12.3409 175 12.0455 175.261 11.6648C175.523 11.2784 175.651 10.8324 175.645 10.3267C175.651 9.83239 175.54 9.40341 175.312 9.03977C175.091 8.67045 174.776 8.38352 174.366 8.17898C173.963 7.97443 173.489 7.87216 172.943 7.87216C172.409 7.87216 171.915 7.96875 171.46 8.16193C171.006 8.35511 170.639 8.63068 170.361 8.98864C170.082 9.34091 169.935 9.76136 169.918 10.25H166.875C166.898 9.27273 167.179 8.41477 167.719 7.67614C168.264 6.93182 168.991 6.35227 169.901 5.9375C170.81 5.51705 171.83 5.30682 172.96 5.30682C174.125 5.30682 175.136 5.52557 175.994 5.96307C176.858 6.39489 177.526 6.97727 177.997 7.71023C178.469 8.44318 178.705 9.25284 178.705 10.1392C178.71 11.1222 178.42 11.946 177.835 12.6108C177.256 13.2756 176.494 13.7102 175.551 13.9148V14.0511C176.778 14.2216 177.719 14.6761 178.372 15.4148C179.031 16.1477 179.358 17.0597 179.352 18.1506C179.352 19.1278 179.074 20.0028 178.517 20.7756C177.966 21.5426 177.205 22.1449 176.233 22.5824C175.267 23.0199 174.159 23.2386 172.909 23.2386ZM145.943 52.2386C145.108 52.233 144.293 52.0881 143.497 51.804C142.702 51.5142 141.986 51.0455 141.349 50.3977C140.713 49.7443 140.207 48.8778 139.832 47.7983C139.457 46.7131 139.273 45.3693 139.278 43.767C139.278 42.2727 139.438 40.9403 139.756 39.7699C140.074 38.5994 140.531 37.6108 141.128 36.804C141.724 35.9915 142.443 35.3722 143.284 34.946C144.131 34.5199 145.077 34.3068 146.122 34.3068C147.219 34.3068 148.19 34.5227 149.037 34.9545C149.889 35.3864 150.577 35.9773 151.099 36.7273C151.622 37.4716 151.946 38.3125 152.071 39.25H148.96C148.801 38.5795 148.474 38.0455 147.98 37.6477C147.491 37.2443 146.872 37.0426 146.122 37.0426C144.912 37.0426 143.98 37.5682 143.327 38.6193C142.679 39.6705 142.352 41.1136 142.347 42.9489H142.466C142.744 42.4489 143.105 42.0199 143.548 41.6619C143.991 41.304 144.491 41.0284 145.048 40.8352C145.611 40.6364 146.205 40.5369 146.83 40.5369C147.852 40.5369 148.77 40.7812 149.582 41.2699C150.401 41.7585 151.048 42.4318 151.526 43.2898C152.003 44.142 152.239 45.1193 152.233 46.2216C152.239 47.3693 151.977 48.4006 151.449 49.3153C150.92 50.2244 150.185 50.9403 149.241 51.4631C148.298 51.9858 147.199 52.2443 145.943 52.2386ZM145.926 49.6818C146.545 49.6818 147.099 49.5312 147.588 49.2301C148.077 48.929 148.463 48.5227 148.747 48.0114C149.031 47.5 149.17 46.9261 149.165 46.2898C149.17 45.6648 149.034 45.0994 148.756 44.5938C148.483 44.0881 148.105 43.6875 147.622 43.392C147.139 43.0966 146.588 42.9489 145.969 42.9489C145.509 42.9489 145.08 43.0369 144.682 43.2131C144.284 43.3892 143.938 43.6335 143.642 43.946C143.347 44.2528 143.114 44.6108 142.943 45.0199C142.778 45.4233 142.693 45.8551 142.688 46.3153C142.693 46.9233 142.835 47.483 143.114 47.9943C143.392 48.5057 143.776 48.9148 144.264 49.2216C144.753 49.5284 145.307 49.6818 145.926 49.6818ZM161.378 52.2386C160.151 52.2386 159.06 52.0284 158.105 51.608C157.156 51.1875 156.406 50.6023 155.855 49.8523C155.304 49.1023 155.011 48.2358 154.977 47.2528H158.182C158.21 47.7244 158.366 48.1364 158.651 48.4886C158.935 48.8352 159.313 49.1051 159.784 49.2983C160.256 49.4915 160.784 49.5881 161.369 49.5881C161.994 49.5881 162.548 49.4801 163.031 49.2642C163.514 49.0426 163.892 48.7358 164.165 48.3438C164.438 47.9517 164.571 47.5 164.565 46.9886C164.571 46.4602 164.435 45.9943 164.156 45.5909C163.878 45.1875 163.474 44.8722 162.946 44.6449C162.423 44.4176 161.793 44.304 161.054 44.304H159.511V41.8665H161.054C161.662 41.8665 162.193 41.7614 162.648 41.5511C163.108 41.3409 163.469 41.0455 163.73 40.6648C163.991 40.2784 164.119 39.8324 164.114 39.3267C164.119 38.8324 164.009 38.4034 163.781 38.0398C163.56 37.6705 163.244 37.3835 162.835 37.179C162.432 36.9744 161.957 36.8722 161.412 36.8722C160.878 36.8722 160.384 36.9687 159.929 37.1619C159.474 37.3551 159.108 37.6307 158.83 37.9886C158.551 38.3409 158.403 38.7614 158.386 39.25H155.344C155.366 38.2727 155.648 37.4148 156.188 36.6761C156.733 35.9318 157.46 35.3523 158.369 34.9375C159.278 34.517 160.298 34.3068 161.429 34.3068C162.594 34.3068 163.605 34.5256 164.463 34.9631C165.327 35.3949 165.994 35.9773 166.466 36.7102C166.938 37.4432 167.173 38.2528 167.173 39.1392C167.179 40.1222 166.889 40.946 166.304 41.6108C165.724 42.2756 164.963 42.7102 164.02 42.9148V43.0511C165.247 43.2216 166.188 43.6761 166.841 44.4148C167.5 45.1477 167.827 46.0597 167.821 47.1506C167.821 48.1278 167.543 49.0028 166.986 49.7756C166.435 50.5426 165.673 51.1449 164.702 51.5824C163.736 52.0199 162.628 52.2386 161.378 52.2386Z" fill="black"/>
<path opacity="0.8" d="M115.335 14.9091C115.335 17.7642 114.794 20.1932 113.712 22.196C112.638 24.1989 111.172 25.7287 109.314 26.7855C107.464 27.8338 105.385 28.358 103.075 28.358C100.749 28.358 98.6605 27.8295 96.8111 26.7727C94.9616 25.7159 93.5 24.1861 92.4261 22.1832C91.3523 20.1804 90.8153 17.7557 90.8153 14.9091C90.8153 12.054 91.3523 9.625 92.4261 7.62216C93.5 5.61932 94.9616 4.09375 96.8111 3.04545C98.6605 1.98864 100.749 1.46023 103.075 1.46023C105.385 1.46023 107.464 1.98864 109.314 3.04545C111.172 4.09375 112.638 5.61932 113.712 7.62216C114.794 9.625 115.335 12.054 115.335 14.9091ZM109.723 14.9091C109.723 13.0597 109.446 11.5 108.892 10.2301C108.347 8.96023 107.575 7.99716 106.578 7.34091C105.581 6.68466 104.413 6.35653 103.075 6.35653C101.737 6.35653 100.57 6.68466 99.5724 7.34091C98.5753 7.99716 97.7997 8.96023 97.2457 10.2301C96.7003 11.5 96.4276 13.0597 96.4276 14.9091C96.4276 16.7585 96.7003 18.3182 97.2457 19.5881C97.7997 20.858 98.5753 21.821 99.5724 22.4773C100.57 23.1335 101.737 23.4616 103.075 23.4616C104.413 23.4616 105.581 23.1335 106.578 22.4773C107.575 21.821 108.347 20.858 108.892 19.5881C109.446 18.3182 109.723 16.7585 109.723 14.9091ZM135.275 28L126.863 16.8395H124.971V28H119.436V1.81818H124.971V12.2756H126.083L134.777 1.81818H141.667L131.453 13.9631L142.14 28H135.275Z" fill="#FF0000"/>
</g>
<defs>
<clipPath id="clip0_1_2">
<rect width="183" height="29" fill="white"/>
</clipPath>
</defs>
</svg>
